# xmcd CD database file
#
# Track frame offsets:
#	150
#	20805
#	33920
#	49650
#	70935
#	90600
#	105987
#	124145
#	150327
#	169965
#	191467
#	210125
#	222835
#	240912
#	252395
#	277910
#	300082
#	317722
#
# Disc length: 4425 seconds
#
# Revision: 0
# Processed by: cddbd v1.5.1PL2 Copyright (c) Steve Scherf et al.
# Submitted via: CDex 1.50Beta7
#
DISCID=e0114712
DTITLE=Nana Mouskouri - Nana Swings
DYEAR=2003
DGENRE=Jazz
TTITLE0=Come Rain Or Come Shine
TTITLE1=No Moon At All
TTITLE2=Love Or Leave Me
TTITLE3=Almost Like Being In Love
TTITLE4=Nature Boy
TTITLE5=I Get A Kick Out Of You
TTITLE6=Makin' Whoopee
TTITLE7=Lover Man
TTITLE8=Moondance
TTITLE9=Blues In The Night
TTITLE10=Someone To Watch Over Me
TTITLE11=A Foggy Day
TTITLE12=Our Love Is Here To Stay
TTITLE13=Bill
TTITLE14=Over The Rainbow
TTITLE15=Black Coffee
TTITLE16=Without A Song
TTITLE17=Come Rain Or Come Shine
EXTD=YEAR: 2003
EXTT0=
EXTT1=
EXTT2=
EXTT3=
EXTT4=
EXTT5=
EXTT6=
EXTT7=
EXTT8=
EXTT9=
EXTT10=
EXTT11=
EXTT12=
EXTT13=
EXTT14=
EXTT15=
EXTT16=
EXTT17=
PLAYORDER=
